<svg xmlns="http://www.w3.org/2000/svg" width="256" height="256"><path fill-opacity=".016" d="M0 128.004v128.004l128.25-.254 128.25-.254.254-127.75L257.008 0H0v128.004m.485.496c0 70.4.119 99.053.265 63.672.146-35.38.146-92.98 0-128C.604 29.153.485 58.1.485 128.5" fill="#1976D2" fill-rule="evenodd"/><path fill-opacity=".243" d="M104.597 1.607C53.153 10.897 10.542 53.809 1.548 105.385c-2.01 11.524-2.01 33.706 0 45.23 9.056 51.931 51.906 94.781 103.837 103.837 11.464 1.999 33.482 2.002 44.893.006 33.636-5.883 65.348-26.55 84.186-54.861 10.119-15.207 18.254-35.488 20.072-50.037.384-3.073 1.095-5.832 1.581-6.132.486-.3.883-7.746.883-16.546 0-8.8-.389-15.759-.865-15.465-.476.294-1.148-1.868-1.493-4.804-1.699-14.46-11.484-38.216-21.606-52.457-19.462-27.381-50.174-46.985-82.421-52.608-11.09-1.934-35.154-1.903-46.018.059m1.733 8.874C70.456 16.99 38.211 41.02 21.765 73.5 12.854 91.101 9 107.559 9 128.021c0 24.701 6.097 45.282 19.634 66.271 5.31 8.234 19.494 23.147 28.259 29.711 35.74 26.765 86.024 30.605 126.571 9.665 20.955-10.823 40.682-30.885 51.294-52.168 19.741-39.589 15.42-89.656-10.755-124.607-6.564-8.765-21.477-22.949-29.711-28.259-14.364-9.264-28.891-15.084-45.152-18.089-10.156-1.877-32.633-1.91-42.81-.064m5.255 6.556c-35.549 5.601-66.941 28.135-82.939 59.539C19.204 95.111 16.467 107.02 16.599 129c.087 14.399.431 17.745 2.7 26.277 8.495 31.945 29.932 58.312 59.437 73.106 66.498 33.342 147.779-8.791 159.787-82.828 9.186-56.636-27.144-111.704-83.246-126.179-10.997-2.838-33.037-4.017-43.692-2.339M.407 128c0 9.075.152 12.787.337 8.25.185-4.537.185-11.963 0-16.5-.185-4.537-.337-.825-.337 8.25" fill="#1976D2" fill-rule="evenodd"/><path fill-opacity=".242" d="M109.52 1.048C60.808 8.685 21.128 42.366 6.072 88.858 1.446 103.144.496 110.037.544 129c.039 15.577.34 18.684 2.737 28.274 6.248 25.005 17.501 44.842 35.412 62.428 32.189 31.604 78.764 43.556 123.558 31.707 11.48-3.037 32.785-13.433 42.23-20.607 8.911-6.768 19.553-17.41 26.321-26.321 11.252-14.814 22.095-41.308 23.832-58.231.353-3.437 1.03-6.25 1.504-6.25s.855-5.963.847-13.25c-.011-8.924-.332-12.76-.985-11.75-.734 1.136-.973.701-.985-1.792-.008-1.811-.724-6.761-1.591-11-8.504-41.583-37.24-76.309-76.647-92.621C161.545 3.281 149.718.903 131.5.481c-8.8-.204-18.691.051-21.98.567m2.98 8.024C61.369 16.08 21.184 53.898 10.318 105.235c-2.39 11.29-2.39 34.24 0 45.53 10.239 48.374 44.719 83.333 93.182 94.476 7.03 1.616 12.393 2.069 24.5 2.069 17.534 0 27.151-1.698 42.709-7.542 54.742-20.562 86.783-79.529 74.314-136.768-10.251-47.059-46.335-82.688-93.689-92.509-9.6-1.991-29.387-2.714-38.834-1.419m3.081 7.93c-25.407 3.177-46.068 12.937-64.475 30.459C28.343 69.13 16.727 96.342 16.727 128c0 30.437 10.051 55.319 31.25 77.362 42.976 44.686 113.202 45.688 157.87 2.254 55.256-53.73 40.131-146.548-29.347-180.089-18.261-8.816-41.908-12.901-60.919-10.525M66.745 60.069C52.86 71.656 41.069 82.062 40.542 83.191c-.761 1.634-.483 2.438 1.361 3.932 1.275 1.032 2.606 1.871 2.958 1.863.351-.007 12.226-9.689 26.389-21.515C92.059 50.096 97 45.5 97 43.52c0-2.09-2.387-4.52-4.439-4.52-.314 0-11.931 9.481-25.816 21.069M182.5 51.207c-11.551 4.037-19.108 16.789-16.561 27.945l.992 4.348-39.603 39.643-39.604 39.642-5.612-.504c-7.001-.628-12.601.842-17.939 4.708-8.124 5.885-11.315 13.911-9.731 24.474l.688 4.589 8.895-8.13 8.895-8.129 6.04 5.253c3.322 2.89 6.04 5.515 6.04 5.833 0 .319-3.664 4.262-8.142 8.764l-8.142 8.185 3.892 1.08c5.149 1.43 7.084 1.373 13.004-.385 12.758-3.789 20.835-17.504 17.388-29.524l-1.001-3.489 39.106-39.115 39.105-39.114 8.145.108c7.365.097 8.672-.19 13.645-2.993 10.187-5.742 15.351-16.145 12.882-25.95-.616-2.445-1.394-4.446-1.73-4.446-.336 0-4.249 3.62-8.696 8.044l-8.087 8.044-6.434-5.967-6.435-5.968 8.336-8.434 8.337-8.434-3.212-.643c-4.557-.911-10.954-.661-14.461.565M99.397 53.25c-13.36 10.462-48.095 40.262-48.855 41.914-.765 1.664-.486 2.463 1.39 3.982 3.049 2.469 1.845 3.293 31.318-21.444 24.051-20.187 25.841-22.211 22.55-25.502-1.729-1.729-3.154-1.495-6.403 1.05M87.312 84.561c-14.196 11.859-26.233 22.167-26.748 22.907-.678.975 1.057 3.713 6.3 9.939 3.98 4.726 7.867 8.593 8.638 8.593.77 0 3.487-3.224 6.036-7.165 9.357-14.464 21.423-24.536 38.712-32.314 5.527-2.486 8.748-4.504 8.745-5.479C128.99 79.354 115.389 63 113.99 63c-.476 0-12.481 9.703-26.678 21.561m14.43 18.702c-2.617 2.33-4.755 4.6-4.75 5.043.012 1.159 14.895 19.694 15.814 19.694 1.129 0 10.199-9.401 10.164-10.534-.017-.531-3.729-4.898-8.25-9.703l-8.22-8.737-4.758 4.237M.392 128c0 7.425.157 10.463.35 6.75.192-3.713.192-9.787 0-13.5-.193-3.713-.35-.675-.35 6.75m138.095 20.014c-5.627 5.685-5.873 6.135-4.516 8.25 10.787 16.806 15.451 26.476 17.504 36.287 1.163 5.557 2.204 7.375 8.532 14.889 3.965 4.708 7.516 8.56 7.893 8.56.556 0 13.605-10.638 31.407-25.607l2.807-2.36-8.036-9.322c-7.151-8.296-8.57-9.459-12.892-10.567-6.22-1.594-15.328-7.743-26.678-18.01-4.946-4.474-9.235-8.134-9.532-8.134-.296 0-3.216 2.706-6.489 6.014m26.436 31.909c-5.214 5.214-3.654 14.096 3.088 17.583 8.39 4.338 17.326-2.89 14.844-12.006-2.215-8.131-12.255-11.254-17.932-5.577" fill="#1976D2" fill-rule="evenodd"/><path fill-opacity=".792" d="M113.001 1.057C82.816 4.833 56.143 18.346 35.198 40.472 12.132 64.839.632 93.96.632 128c0 22.049 3.756 38.127 13.447 57.565 17.51 35.122 51.133 60.359 90.711 68.086 10.698 2.089 33.588 2.323 44.21.452 16.971-2.989 35.607-10.453 50.5-20.227 10.269-6.739 27.637-24.107 34.376-34.376C245.67 181.529 255 155.235 255 139.971c0-2.119.45-4.131 1-4.471.55-.34 1-4.218 1-8.618 0-5.079-.365-7.774-1-7.382-.602.372-1-.953-1-3.331 0-11.171-5.497-30.34-13.116-45.734-17.305-34.967-51.243-60.503-90.318-67.958-10.143-1.935-28.919-2.626-38.565-1.42m-5.407 8.55c-25.415 4.59-45.72 15.266-64.221 33.766C19.968 66.779 8 95.41 8 128c0 32.59 11.968 61.221 35.373 84.627 16.497 16.496 34.083 26.501 56.515 32.151 9.618 2.423 12.297 2.667 28.612 2.612 16.049-.054 19.039-.339 27.585-2.626 24.72-6.616 41.805-16.562 58.727-34.189 12.93-13.467 22.04-28.752 27.464-46.075 4.549-14.527 5.206-19.227 5.174-37-.026-15.011-.341-18.241-2.687-27.612-5.605-22.381-15.627-40.005-32.136-56.515-23.709-23.709-52.38-35.539-85.508-35.283-6.39.049-15.177.732-19.525 1.517m.712 8.815c-43.572 8.287-76.969 39.696-88.455 83.192-2.065 7.822-2.338 11.042-2.272 26.886.083 19.874 1.132 25.58 7.722 41.993 10.564 26.31 33.896 49.642 60.206 60.206 13.991 5.618 22.592 7.43 37.993 8.005 16.713.623 27.527-.956 42.027-6.138 35.197-12.58 60.706-40.932 70.661-78.535 2.849-10.763 3.552-32.587 1.439-44.702-7.674-43.999-39.126-77.684-83.596-89.529-9.837-2.62-35.178-3.383-45.725-1.378M65.853 60.265C48.332 74.961 40.399 82.238 40.173 83.82c-.405 2.837 1.429 5.18 4.054 5.18C46.93 89 98 46.157 98 43.889 98 41.612 95.345 39 93.032 39c-1.004 0-13.235 9.569-27.179 21.265m117.056-9.767c-6.391 2.046-13.138 8.283-15.896 14.692-1.872 4.353-2.169 6.41-1.712 11.866l.554 6.599-38.932 38.922L87.991 161.5l-7.329.051c-5.918.041-8.423.586-13.012 2.832-9.688 4.74-15.694 15.212-14.24 24.829 1.232 8.147 1.713 8.099 10.979-1.11l8.45-8.397 6.193 5.897 6.192 5.898-8.846 8.186-8.846 8.186 2.799 1.064c4.378 1.664 13.679 1.243 18.234-.826 11.856-5.385 17.766-17.112 15.013-29.787-.573-2.638 1.947-5.382 38.393-41.807l39.007-38.984 6.881.318c8.897.411 15.362-2.24 21.521-8.825 4.59-4.908 6.605-9.819 6.614-16.126.007-3.988-1.761-9.899-2.959-9.899-.423 0-4.235 3.627-8.471 8.061-4.235 4.433-8.059 7.92-8.498 7.75-.439-.171-3.297-2.607-6.351-5.413l-5.553-5.103 8.407-8.364c6.097-6.065 8.035-8.573 7.052-9.123-2.853-1.597-12.154-1.769-16.712-.31M75.795 72.256C58.26 86.991 50.4 94.217 50.173 95.811c-.4 2.813 1.418 5.189 3.972 5.189 1.904 0 50.127-39.403 52.75-43.102 1.085-1.53 1.145-2.514.271-4.432-2.299-5.046-4.763-3.57-31.371 18.79m10.674 12.502C72.2 96.724 60.375 107.289 60.193 108.235 59.808 110.234 73.524 127 75.545 127c.731 0 3.763-3.713 6.737-8.25 9.605-14.652 17.701-21.537 36.176-30.766 7.573-3.782 11.004-6.025 10.922-7.139C129.2 78.431 115.943 63 114.047 63c-.898 0-13.308 9.791-27.578 21.758m14.894 18.323a1514.034 1514.034 0 00-5.245 4.511c-.379.336 8.211 11.848 13.589 18.212l2.793 3.305 5.764-5.848 5.764-5.847-8.059-8.957c-4.432-4.926-8.437-9.09-8.9-9.253-.463-.162-3.031 1.582-5.706 3.877M.349 128c0 4.675.173 6.588.383 4.25.211-2.338.211-6.163 0-8.5-.21-2.338-.383-.425-.383 4.25m138.358 19.807l-6.626 6.693 4.573 7c7.217 11.048 13.301 24.296 14.009 30.507.562 4.938 1.334 6.352 7.638 13.993 3.857 4.675 7.587 9.128 8.288 9.896 1.068 1.17 4.039-.923 18.343-12.926 9.387-7.878 17.068-14.589 17.068-14.914 0-.324-3.673-4.97-8.162-10.323-6.228-7.427-8.741-9.733-10.605-9.733-5.625 0-17.383-7.726-30.733-20.193l-7.167-6.693-6.626 6.693m29.681 30.173c-6.942 2.805-8.248 12.075-2.434 17.27 5.994 5.356 15.227 2.635 16.641-4.905.938-4.999-1.638-10.047-6.073-11.9-3.881-1.622-5.098-1.691-8.134-.465" fill="#1976D2" fill-rule="evenodd"/></svg>